<?xml version="1.0" encoding="UTF-8" standalone="no"?>
<!-- Created with Inkscape (http://www.inkscape.org/) -->

<svg
   xmlns:dc="http://purl.org/dc/elements/1.1/"
   xmlns:cc="http://creativecommons.org/ns#"
   xmlns:rdf="http://www.w3.org/1999/02/22-rdf-syntax-ns#"
   xmlns:svg="http://www.w3.org/2000/svg"
   xmlns="http://www.w3.org/2000/svg"
   xmlns:sodipodi="http://sodipodi.sourceforge.net/DTD/sodipodi-0.dtd"
   xmlns:inkscape="http://www.inkscape.org/namespaces/inkscape"
   width="744.09448819"
   height="1052.3622047"
   id="svg2"
   version="1.1"
   inkscape:version="0.48.3.1 r9886"
   sodipodi:docname="tu-logo.svg">
  <defs
     id="defs4">
    <clipPath
       id="clipPath2999"
       clipPathUnits="userSpaceOnUse">
      <path
         id="path3001"
         d="m 0,841.89 595.28,0 L 595.28,0 0,0 0,841.89 z" />
    </clipPath>
  </defs>
  <sodipodi:namedview
     id="base"
     pagecolor="#ffffff"
     bordercolor="#666666"
     borderopacity="1.0"
     inkscape:pageopacity="0.0"
     inkscape:pageshadow="2"
     inkscape:zoom="0.087500001"
     inkscape:cx="1102.4766"
     inkscape:cy="1294.5392"
     inkscape:document-units="px"
     inkscape:current-layer="g4102"
     showgrid="false"
     inkscape:window-width="1366"
     inkscape:window-height="744"
     inkscape:window-x="0"
     inkscape:window-y="24"
     inkscape:window-maximized="1" />
  <metadata
     id="metadata7">
    <rdf:RDF>
      <cc:Work
         rdf:about="">
        <dc:format>image/svg+xml</dc:format>
        <dc:type
           rdf:resource="http://purl.org/dc/dcmitype/StillImage" />
        <dc:title></dc:title>
      </cc:Work>
    </rdf:RDF>
  </metadata>
  <g
     inkscape:label="Layer 1"
     inkscape:groupmode="layer"
     id="layer1"
     style="display:none">
    <g
       id="g2995"
       transform="matrix(1.25,0,0,-1.25,-20.455669,758.28389)">
      <g
         id="g2997"
         clip-path="url(#clipPath2999)">
        <g
           id="g3003"
           transform="translate(340.8115,547.8477)" />
        <path
           inkscape:connector-curvature="0"
           d="m 99.994,516.231 -30.374,0 0,-30.374 30.374,0 0,30.374 z"
           style="fill:#494d63;fill-opacity:1;fill-rule:evenodd;stroke:none"
           id="path3007" />
        <g
           id="g3009"
           transform="translate(66.084,518.6543)">
          <path
             inkscape:connector-curvature="0"
             d="m 0,0 -31.742,1.435 -1.432,-31.747 31.741,-1.43 L 0,0 z"
             style="fill:#685f88;fill-opacity:1;fill-rule:evenodd;stroke:none"
             id="path3011" />
        </g>
        <path
           inkscape:connector-curvature="0"
           d="m 102.78,519.014 30.376,0 0,30.376 -30.376,0 0,-30.376 z"
           style="fill:#494d63;fill-opacity:1;fill-rule:evenodd;stroke:none"
           id="path3013" />
        <g
           id="g3015"
           transform="translate(66.2041,521.3652)">
          <path
             inkscape:connector-curvature="0"
             d="M 0,0 31.751,-1.161 32.91,30.59 1.159,31.749 0,0 z"
             style="fill:#685f88;fill-opacity:1;fill-rule:evenodd;stroke:none"
             id="path3017" />
        </g>
        <g
           id="g3019"
           transform="translate(132.2861,585.1079)">
          <path
             inkscape:connector-curvature="0"
             d="m 0,0 -31.752,1.178 -1.181,-31.751 31.754,-1.18 L 0,0 z"
             style="fill:#685f88;fill-opacity:1;fill-rule:evenodd;stroke:none"
             id="path3021" />
        </g>
        <g
           id="g3023"
           transform="translate(25.9326,528.4717)">
          <path
             inkscape:connector-curvature="0"
             d="M 0,0 31.392,-4.901 36.298,26.492 4.902,31.394 0,0 z"
             style="fill:#786ea9;fill-opacity:1;fill-rule:evenodd;stroke:none"
             id="path3025" />
        </g>
        <g
           id="g3027"
           transform="translate(94.8574,589.3931)">
          <path
             inkscape:connector-curvature="0"
             d="m 0,0 -31.478,4.318 -4.32,-31.477 31.48,-4.319 L 0,0 z"
             style="fill:#786ea9;fill-opacity:1;fill-rule:evenodd;stroke:none"
             id="path3029" />
        </g>
        <g
           id="g3031"
           transform="translate(54.4067,601.2188)">
          <path
             inkscape:connector-curvature="0"
             d="M 0,0 -32.718,5.405 -38.124,-27.313 -5.405,-32.718 0,0 z"
             style="fill:#7a74b4;fill-opacity:1;fill-rule:evenodd;stroke:none"
             id="path3033" />
        </g>
        <path
           inkscape:connector-curvature="0"
           d="m 167.017,583.819 -31.771,0 0,-31.771 31.771,0 0,31.771 z"
           style="fill:#494d63;fill-opacity:1;fill-rule:evenodd;stroke:none"
           id="path3035" />
        <g
           id="g3037"
           transform="translate(102.084,516.9268)">
          <path
             inkscape:connector-curvature="0"
             d="m 0,0 0,-33.162 -33.159,0 0,-31.771 32.464,0 33.162,0 32.466,0 0,22.304 0,10.163 0,65.628 -31.771,0 L 33.162,0 0,0 z"
             style="fill:#424556;fill-opacity:1;fill-rule:evenodd;stroke:none"
             id="path3039" />
        </g>
        <path
           inkscape:connector-curvature="0"
           d="m 66.964,483.765 -31.768,0 0,-31.771 31.768,0 0,31.771 z"
           style="fill:#494d63;fill-opacity:1;fill-rule:evenodd;stroke:none"
           id="path3041" />
      </g>
    </g>
    <path
       inkscape:connector-curvature="0"
       d="m 201.47654,247.46329 0,18.15 c -4.385,0.2275 -7.82125,1.6425 -10.2625,4.21625 -2.67,2.8275 -4.27125,6.9525 -4.78625,12.39875 l 15.04875,0 0,18.17375 -15.34875,0 c 0.38375,5.11625 2.2675,8.96125 5.675,11.55875 2.42875,1.82875 5.64875,3.01 9.67375,3.545 l 0,19.1925 c -8.1875,-0.32375 -14.965,-1.82875 -20.36375,-4.51625 -6.135,-3.0825 -10.61625,-7.76125 -13.495,-14.0475 -2.84875,-6.26125 -4.27125,-14.20375 -4.24625,-23.82375 0,-6.5975 0.83875,-12.6325 2.51875,-18.1025 1.68,-5.47 4.19875,-10.20625 7.5825,-14.2 3.3575,-3.99875 7.58625,-7.1025 12.655,-9.29375 4.4375,-1.90875 9.5725,-3 15.34875,-3.25125 m -103.012499,85.9275 0,-53.605 c 1.32125,-1.96125 2.797499,-3.79375 4.452499,-5.475 1.62875,-1.68 3.515,-3.05375 5.62625,-4.0725 2.0875,-1.04375 4.505,-1.57875 7.1775,-1.6025 2.67125,-0.0263 4.68375,0.81625 6.00625,2.52 1.34875,1.73 2.24,4.45625 2.69875,8.16875 0.4325,3.7425 0.66,8.63125 0.6125,14.665 l 0,11.83375 c -0.0275,3.84625 -0.0275,7.40875 -0.0512,10.7425 -0.0275,3.335 -0.0275,6.23875 -0.05,8.75125 0,2.52625 -0.0275,4.48125 -0.0275,5.90875 -0.0275,1.4275 -0.0275,2.135 -0.0275,2.165 l 22.91,0 0,-2.11125 0,-5.4525 0,-7.455 0,-8.145 0,-7.45625 0,-5.44625 0,-2.1175 c 0.0263,-9.08625 -0.33,-16.69875 -1.06875,-22.80375 -0.76375,-6.11 -2.11,-10.9475 -4.0475,-14.56 -1.935,-3.59 -4.65875,-6.16125 -8.14625,-7.71375 -3.51125,-1.55375 -7.99125,-2.31625 -13.4625,-2.265 -3.56625,0.0238 -6.90125,0.6125 -10.02875,1.73125 -3.13,1.11875 -6.06,2.6475 -8.78125,4.5825 -2.749999,1.93375 -5.268749,4.09625 -7.611249,6.51625 -1.655,-3.56625 -3.515,-6.28875 -5.575,-8.145 -2.0375,-1.86 -4.405,-3.1075 -7.0775,-3.77 -2.6725,-0.66 -5.8025,-0.96625 -9.3425,-0.915 -3.5875,0.0238 -6.87125,0.585 -9.825,1.68 -2.9775,1.09125 -5.7275,2.6475 -8.29875,4.63375 -2.54625,1.985 -5.0125,4.3 -7.38,6.9725 l -1.37375,-11.76 -19.7025,0 0,84 22.90875,0 0,-52.53625 c 2.46875,-3.79375 5.21875,-6.7725 8.22375,-8.91375 3.02625,-2.16 6.18375,-3.28125 9.49125,-3.305 2.51875,-0.0263 4.43,0.81625 5.72875,2.52 1.29875,1.73 2.18875,4.45625 2.6475,8.16875 0.45875,3.7425 0.6625,8.63125 0.63625,14.665 l 0,11.83375 c -0.0238,3.84625 -0.0238,7.40875 -0.05,10.7425 -0.0288,3.335 -0.0288,6.23875 -0.0513,8.75125 0,2.52625 -0.0275,4.48125 -0.0275,5.90875 -0.0238,1.4275 -0.0238,2.135 -0.0238,2.165 l 22.91,0 z m 314.306249,-64.605 0,-18.63 -32.3775,0 0,-22.30125 -10.38875,0 c 0,0.0275 -0.32875,0.6125 -0.9425,1.73375 -0.63375,1.14625 -1.5275,2.6725 -2.6675,4.5825 -1.17625,1.93125 -2.54875,4.07375 -4.1275,6.44 -1.60125,2.365 -3.3825,4.81 -5.345,7.2775 -1.93625,2.495 -4.02375,4.88875 -6.26,7.18 -2.215,2.29125 -4.52875,4.3275 -6.92875,6.0825 l 0,7.485 13.7475,0 0,2.03375 c -0.0238,1.325 -0.0238,3.0825 -0.0238,5.2725 -0.0238,2.2125 -0.0238,4.63 -0.0488,7.25125 0,2.65125 -0.0225,5.29625 -0.0225,7.9425 -0.0312,2.67375 -0.0312,5.145 -0.0312,7.3825 -0.03,2.26125 -0.03,4.12125 -0.03,5.54875 0,10.64 2.34625,18.50375 7.03,23.59625 4.67875,5.06125 11.75625,7.58125 21.22625,7.5575 3.08375,0 6.16125,-0.22875 9.2925,-0.66 3.10625,-0.43125 6.08125,-1.04375 8.96125,-1.83625 2.8775,-0.76125 5.49375,-1.67875 7.86875,-2.69875 l 0.91125,-22.295 c -0.0238,0.055 -0.61125,0.4375 -1.78125,1.17 -1.16875,0.74375 -2.7475,1.6075 -4.78625,2.57375 -2.03375,0.965 -4.34875,1.82875 -6.97625,2.57375 -2.59,0.73625 -5.3675,1.145 -8.295,1.1625 -3.515,0 -6.11125,-1.2175 -7.83875,-3.6825 -1.70375,-2.4475 -2.54375,-6.16625 -2.54375,-11.12625 l 0,-31.76625 32.3775,0.15 z m -80.3375,64.605 0,-2.11125 0,-5.4525 0,-7.455 0,-8.145 0,-7.45625 0,-5.44625 0,-2.1175 c 0.03,-9.18875 -0.355,-16.875 -1.19375,-22.98375 -0.84,-6.13375 -2.29125,-10.97125 -4.4025,-14.5575 -2.0875,-3.5625 -5.015,-6.085 -8.7575,-7.6125 -3.76625,-1.50125 -8.55375,-2.24 -14.35375,-2.18875 -3.38875,0.0238 -6.72375,0.585 -9.98125,1.70375 -3.2625,1.12125 -6.30875,2.675 -9.165,4.685 -2.84875,1.985 -5.31875,4.27625 -7.43125,6.8975 l -1.37375,-11.76 -19.7025,0 0,84 23.0625,0 0,-52.53625 c 1.6075,-2.5225 3.4125,-4.685 5.445,-6.4925 2.065,-1.8325 4.25375,-3.23375 6.56875,-4.22625 2.315,-0.99 4.66,-1.5 7.0775,-1.5 2.98125,-0.0263 5.2975,0.81625 6.975,2.52 1.68,1.73 2.85,4.45625 3.51,8.16875 0.665,3.7425 0.995,8.63125 0.96625,14.665 l 0,11.83375 c -0.025,3.84625 -0.025,7.40875 -0.0487,10.7425 -0.0238,3.335 -0.0238,6.23875 -0.0487,8.75125 0,2.52625 -0.0238,4.48125 -0.0238,5.90875 -0.03,1.4275 -0.03,2.135 -0.03,2.165 l 22.9075,0 z m -130.95625,-32.98875 0,-18.17375 15.0375,0 c 0.03,-2.19 -0.20375,-4.2775 -0.66,-6.28625 -0.455,-1.98625 -1.19375,-3.7425 -2.2675,-5.29625 -1.0425,-1.55375 -2.44125,-2.80125 -4.22125,-3.68875 -1.7525,-0.89375 -3.97125,-1.35 -6.5925,-1.3775 -0.4375,0 -0.87,0.009 -1.29625,0.0337 l 0,-18.15 c 0.77375,-0.0325 1.56625,-0.0538 2.36375,-0.0575 5.62625,0.0275 10.46625,0.8125 14.485,2.31625 3.995,1.525 7.33,3.58875 9.98125,6.18625 2.63875,2.62125 4.7325,5.5475 6.23125,8.85625 1.53,3.28375 2.5975,6.72125 3.21,10.2825 0.635,3.56625 0.94125,7.07875 0.91125,10.54 0,1.4275 -0.0725,2.92625 -0.20375,4.505 -0.0962,1.5825 -0.2525,3.08125 -0.4325,4.50375 -0.15,1.4275 -0.3,2.675 -0.45625,3.695 -0.14875,1.0375 -0.2275,1.75625 -0.27625,2.11125 l -35.81375,0 z m 0,34.29625 0,-19.1925 c 1.62625,0.20875 3.3775,0.3175 5.26625,0.3175 4.025,-0.025 7.71375,-0.32375 11.04875,-0.93625 3.32875,-0.5875 6.20875,-1.27125 8.63125,-2.03875 2.44125,-0.7625 4.325,-1.4525 5.65,-2.04 1.32,-0.61125 1.98,-0.91125 2.01,-0.935 l 0,19.85375 c -2.82625,1.16875 -5.885,2.11125 -9.19,2.8775 -3.31,0.7325 -6.67,1.2725 -10.0825,1.62 -3.4075,0.36 -6.7175,0.54 -9.89625,0.54 -1.175,0 -2.31625,-0.0237 -3.4375,-0.0662 m 256.95625,-54.2463 0,17.9525 c -4.125,0.29375 -7.395,1.03125 -9.8,2.225 -3.2325,1.60125 -4.86375,4.22875 -4.86375,7.86375 0,2.59625 0.74375,4.6125 2.18875,6.01 1.4825,1.3725 3.68875,2.0875 6.67,2.0875 2.0025,-0.0187 3.94,-0.3125 5.805,-0.87 l 0,18.20375 -0.78375,0.2525 c -2.49625,0.79125 -5.04625,1.17625 -7.61875,1.2 -6.2075,-0.0237 -11.3475,-1.1225 -15.3975,-3.23375 -4.07125,-2.14125 -7.10125,-5.16375 -9.11125,-9.0625 -1.99,-3.89375 -2.98,-8.5 -2.98,-13.82 0.0238,-6.13625 1.55375,-11.33 4.5825,-15.63 3.0525,-4.30125 7.455,-7.55875 13.23625,-9.82625 5.06375,-1.99125 11.0975,-3.1 18.0725,-3.3525 m 0,-32.4075 0,19.70375 c -0.40125,-0.0175 -0.80875,-0.0275 -1.2225,-0.03 -3.13125,0 -6.18375,0.22875 -9.19,0.7375 -3.00375,0.51 -5.83,1.2725 -8.45,2.3425 -2.62125,1.04375 -4.9375,2.4175 -6.94625,4.09625 l -1.68,-22.90625 c 0.025,-0.0237 0.7325,-0.2275 2.16,-0.61125 1.42625,-0.4075 3.4375,-0.86625 6.0575,-1.37375 2.62125,-0.51 5.75875,-0.96875 9.37,-1.37625 3.0225,-0.31875 6.3275,-0.5125 9.90125,-0.5825 m 0,85.88 0,-18.20375 c 0.85875,-0.25875 1.71125,-0.57 2.545,-0.93625 2.645,-1.16875 5.0125,-2.645 7.125,-4.48 2.0875,-1.835 3.74875,-3.76625 4.99,-5.7825 l -0.15,-6.26125 -9.9325,0 c -1.625,-0.006 -3.155,0.0412 -4.5775,0.14375 l 0,-17.9525 c 0.94875,-0.0362 1.915,-0.0538 2.8975,-0.0538 l 5.045,0 c 1.60125,0 2.98125,0.0238 4.12,0.0475 1.1525,0.0238 1.9075,0.0488 2.2925,0.1025 -0.22875,-2.42 -0.84,-4.5825 -1.86,-6.5175 -1.02,-1.93375 -2.64625,-3.46125 -4.835,-4.57875 -1.9425,-0.99875 -4.49125,-1.5725 -7.66,-1.70375 l 0,-19.70375 c 0.7025,-0.015 1.41625,-0.0238 2.135,-0.0275 6.7975,0 12.44625,0.78875 16.9275,2.3425 4.48,1.5775 8.01875,3.97125 10.58625,7.1775 2.58,3.20875 4.37875,7.28125 5.4525,12.19125 1.0675,4.915 1.5775,10.7175 1.55375,17.3875 l 0,19.2425 c 0.0238,3.48375 0.2275,6.7475 0.635,9.77625 0.40875,3.0225 0.8875,5.675 1.42875,7.96625 0.5275,2.26625 1.01375,4.07125 1.42125,5.34375 0.4075,1.27125 0.61125,1.9375 0.63625,1.96125 l -21.53375,3.05375 c -0.22875,-0.895 -0.48625,-1.90875 -0.7375,-3.0775 -0.27625,-1.1525 -0.535,-2.31625 -0.7925,-3.49125 -0.25125,-1.17 -0.47875,-2.2675 -0.65875,-3.2575 -0.20375,-1.01875 -0.33125,-1.805 -0.40875,-2.3925 -1.115,1.5525 -2.56625,3.07625 -4.355,4.63 -1.75125,1.53 -3.765,2.95125 -6.0025,4.22875 -1.98,1.13375 -4.08625,2.09375 -6.2875,2.825"
       style="fill:#494d63;fill-opacity:1;fill-rule:nonzero;stroke:none"
       id="path3005" />
  </g>
  <g
     id="g3150"
     inkscape:groupmode="layer"
     inkscape:label="2"
     style="display:none">
    <g
       transform="matrix(1.25,0,0,-1.25,-20.455669,758.28389)"
       id="g3152">
      <g
         id="g3156"
         transform="translate(340.8115,547.8477)" />
      <path
         inkscape:connector-curvature="0"
         d="m 99.994,516.231 -30.374,0 0,-30.374 30.374,0 0,30.374 z"
         style="fill:#494d63;fill-opacity:1;fill-rule:evenodd;stroke:none"
         id="path3158" />
      <path
         id="path3162"
         style="fill:#685f88;fill-opacity:1;fill-rule:evenodd;stroke:none"
         d="m 66.084,518.6543 -31.742,1.435 -1.432,-31.747 31.741,-1.43 1.433,31.742 z"
         inkscape:connector-curvature="0" />
      <path
         inkscape:connector-curvature="0"
         d="m 102.78,519.014 30.376,0 0,30.376 -30.376,0 0,-30.376 z"
         style="fill:#494d63;fill-opacity:1;fill-rule:evenodd;stroke:none"
         id="path3164" />
      <path
         id="path3168"
         style="fill:#685f88;fill-opacity:1;fill-rule:evenodd;stroke:none"
         d="m 66.2041,521.3652 31.751,-1.161 1.159,31.751 -31.751,1.159 -1.159,-31.749 z"
         inkscape:connector-curvature="0" />
      <path
         id="path3172"
         style="fill:#685f88;fill-opacity:1;fill-rule:evenodd;stroke:none"
         d="m 132.2861,585.1079 -31.752,1.178 -1.181,-31.751 31.754,-1.18 1.179,31.753 z"
         inkscape:connector-curvature="0" />
      <path
         id="path3176"
         style="fill:#786ea9;fill-opacity:1;fill-rule:evenodd;stroke:none"
         d="m 25.9326,528.4717 31.392,-4.901 4.906,31.393 -31.396,4.902 -4.902,-31.394 z"
         inkscape:connector-curvature="0" />
      <path
         id="path3180"
         style="fill:#786ea9;fill-opacity:1;fill-rule:evenodd;stroke:none"
         d="m 94.8574,589.3931 -31.478,4.318 -4.32,-31.477 31.48,-4.319 4.318,31.478 z"
         inkscape:connector-curvature="0" />
      <path
         id="path3184"
         style="fill:#7a74b4;fill-opacity:1;fill-rule:evenodd;stroke:none"
         d="m 54.4067,601.2188 -32.718,5.405 -5.406,-32.718 32.719,-5.405 5.405,32.718 z"
         inkscape:connector-curvature="0" />
      <path
         inkscape:connector-curvature="0"
         d="m 167.017,583.819 -31.771,0 0,-31.771 31.771,0 0,31.771 z"
         style="fill:#494d63;fill-opacity:1;fill-rule:evenodd;stroke:none"
         id="path3186" />
      <path
         id="path3190"
         style="fill:#424556;fill-opacity:1;fill-rule:evenodd;stroke:none"
         d="m 102.084,516.9268 0,-33.162 -33.159,0 0,-31.771 32.464,0 33.162,0 32.466,0 0,22.304 0,10.163 0,65.628 -31.771,0 0,-33.162 -33.162,0 z"
         inkscape:connector-curvature="0" />
      <path
         inkscape:connector-curvature="0"
         d="m 66.964,483.765 -31.768,0 0,-31.771 31.768,0 0,31.771 z"
         style="fill:#494d63;fill-opacity:1;fill-rule:evenodd;stroke:none"
         id="path3192" />
    </g>
    <g
       id="g3994"
       transform="matrix(1.25,0,0,-1.25,-20.455669,758.28389)">
      <g
         transform="translate(340.8115,547.8477)"
         id="g3996" />
      <path
         id="path3998"
         style="fill:#494d63;fill-opacity:1;fill-rule:evenodd;stroke:none"
         d="m 99.994,516.231 -30.374,0 0,-30.374 30.374,0 0,30.374 z"
         inkscape:connector-curvature="0" />
      <path
         inkscape:connector-curvature="0"
         d="m 66.084,518.6543 -31.742,1.435 -1.432,-31.747 31.741,-1.43 1.433,31.742 z"
         style="fill:#685f88;fill-opacity:1;fill-rule:evenodd;stroke:none"
         id="path4000" />
      <path
         id="path4002"
         style="fill:#494d63;fill-opacity:1;fill-rule:evenodd;stroke:none"
         d="m 102.78,519.014 30.376,0 0,30.376 -30.376,0 0,-30.376 z"
         inkscape:connector-curvature="0" />
      <path
         inkscape:connector-curvature="0"
         d="m 66.2041,521.3652 31.751,-1.161 1.159,31.751 -31.751,1.159 -1.159,-31.749 z"
         style="fill:#685f88;fill-opacity:1;fill-rule:evenodd;stroke:none"
         id="path4004" />
      <path
         inkscape:connector-curvature="0"
         d="m 132.2861,585.1079 -31.752,1.178 -1.181,-31.751 31.754,-1.18 1.179,31.753 z"
         style="fill:#685f88;fill-opacity:1;fill-rule:evenodd;stroke:none"
         id="path4006" />
      <path
         inkscape:connector-curvature="0"
         d="m 25.9326,528.4717 31.392,-4.901 4.906,31.393 -31.396,4.902 -4.902,-31.394 z"
         style="fill:#786ea9;fill-opacity:1;fill-rule:evenodd;stroke:none"
         id="path4008" />
      <path
         inkscape:connector-curvature="0"
         d="m 94.8574,589.3931 -31.478,4.318 -4.32,-31.477 31.48,-4.319 4.318,31.478 z"
         style="fill:#786ea9;fill-opacity:1;fill-rule:evenodd;stroke:none"
         id="path4010" />
      <path
         inkscape:connector-curvature="0"
         d="m 54.4067,601.2188 -32.718,5.405 -5.406,-32.718 32.719,-5.405 5.405,32.718 z"
         style="fill:#7a74b4;fill-opacity:1;fill-rule:evenodd;stroke:none"
         id="path4012" />
      <path
         id="path4014"
         style="fill:#494d63;fill-opacity:1;fill-rule:evenodd;stroke:none"
         d="m 167.017,583.819 -31.771,0 0,-31.771 31.771,0 0,31.771 z"
         inkscape:connector-curvature="0" />
      <path
         inkscape:connector-curvature="0"
         d="m 102.084,516.9268 0,-33.162 -33.159,0 0,-31.771 32.464,0 33.162,0 32.466,0 0,22.304 0,10.163 0,65.628 -31.771,0 0,-33.162 -33.162,0 z"
         style="fill:#424556;fill-opacity:1;fill-rule:evenodd;stroke:none"
         id="path4016" />
      <path
         id="path4018"
         style="fill:#494d63;fill-opacity:1;fill-rule:evenodd;stroke:none"
         d="m 66.964,483.765 -31.768,0 0,-31.771 31.768,0 0,31.771 z"
         inkscape:connector-curvature="0" />
    </g>
  </g>
  <g
     inkscape:label="3"
     inkscape:groupmode="layer"
     id="g4020">
    <g
       id="g4022"
       transform="matrix(1.25,0,0,-1.25,-20.455669,758.28389)"
       inkscape:export-filename="/home/max/Projects/2/2/doc/logo/tu-logo-small_bw.png"
       inkscape:export-xdpi="90"
       inkscape:export-ydpi="90">
      <g
         transform="translate(340.8115,547.8477)"
         id="g4024" />
      <path
         id="path4026"
         style="fill:#494d63;fill-opacity:1;fill-rule:evenodd;stroke:none"
         d="m 99.994,516.231 -30.374,0 0,-30.374 30.374,0 0,30.374 z"
         inkscape:connector-curvature="0" />
      <path
         inkscape:connector-curvature="0"
         d="m 66.084,518.6543 -31.742,1.435 -1.432,-31.747 31.741,-1.43 1.433,31.742 z"
         style="fill:#685f88;fill-opacity:1;fill-rule:evenodd;stroke:none"
         id="path4028" />
      <path
         id="path4030"
         style="fill:#494d63;fill-opacity:1;fill-rule:evenodd;stroke:none"
         d="m 102.78,519.014 30.376,0 0,30.376 -30.376,0 0,-30.376 z"
         inkscape:connector-curvature="0" />
      <path
         inkscape:connector-curvature="0"
         d="m 66.2041,521.3652 31.751,-1.161 1.159,31.751 -31.751,1.159 -1.159,-31.749 z"
         style="fill:#685f88;fill-opacity:1;fill-rule:evenodd;stroke:none"
         id="path4032" />
      <path
         inkscape:connector-curvature="0"
         d="m 132.2861,585.1079 -31.752,1.178 -1.181,-31.751 31.754,-1.18 1.179,31.753 z"
         style="fill:#685f88;fill-opacity:1;fill-rule:evenodd;stroke:none"
         id="path4034" />
      <path
         inkscape:connector-curvature="0"
         d="m 25.9326,528.4717 31.392,-4.901 4.906,31.393 -31.396,4.902 -4.902,-31.394 z"
         style="fill:#786ea9;fill-opacity:1;fill-rule:evenodd;stroke:none"
         id="path4036" />
      <path
         inkscape:connector-curvature="0"
         d="m 94.8574,589.3931 -31.478,4.318 -4.32,-31.477 31.48,-4.319 4.318,31.478 z"
         style="fill:#786ea9;fill-opacity:1;fill-rule:evenodd;stroke:none"
         id="path4038" />
      <path
         inkscape:connector-curvature="0"
         d="m 54.4067,601.2188 -32.718,5.405 -5.406,-32.718 32.719,-5.405 5.405,32.718 z"
         style="fill:#7a74b4;fill-opacity:1;fill-rule:evenodd;stroke:none"
         id="path4040" />
      <path
         id="path4042"
         style="fill:#494d63;fill-opacity:1;fill-rule:evenodd;stroke:none"
         d="m 167.017,583.819 -31.771,0 0,-31.771 31.771,0 0,31.771 z"
         inkscape:connector-curvature="0" />
      <path
         inkscape:connector-curvature="0"
         d="m 102.084,516.9268 0,-33.162 -33.159,0 0,-31.771 32.464,0 33.162,0 32.466,0 0,22.304 0,10.163 0,65.628 -31.771,0 0,-33.162 -33.162,0 z"
         style="fill:#424556;fill-opacity:1;fill-rule:evenodd;stroke:none"
         id="path4044" />
      <path
         id="path4046"
         style="fill:#494d63;fill-opacity:1;fill-rule:evenodd;stroke:none"
         d="m 66.964,483.765 -31.768,0 0,-31.771 31.768,0 0,31.771 z"
         inkscape:connector-curvature="0" />
    </g>
    <g
       transform="matrix(1.25,0,0,-1.25,-20.455669,758.28389)"
       id="g4048"
       style="display:inline"
       inkscape:export-filename="/home/max/Projects/2/2/doc/logo/tu-logo-small_bw.png"
       inkscape:export-xdpi="90"
       inkscape:export-ydpi="90">
      <g
         id="g4050"
         transform="translate(340.8115,547.8477)" />
      <path
         inkscape:connector-curvature="0"
         d="m 99.994,516.231 -30.374,0 0,-30.374 30.374,0 0,30.374 z"
         style="fill:#565656;fill-opacity:1;fill-rule:evenodd;stroke:none"
         id="path4052" />
      <path
         id="path4054"
         style="fill:#747474;fill-opacity:1;fill-rule:evenodd;stroke:none"
         d="m 66.084,518.6543 -31.742,1.435 -1.432,-31.747 31.741,-1.43 1.433,31.742 z"
         inkscape:connector-curvature="0" />
      <path
         inkscape:connector-curvature="0"
         d="m 102.78,519.014 30.376,0 0,30.376 -30.376,0 0,-30.376 z"
         style="fill:#565656;fill-opacity:1;fill-rule:evenodd;stroke:none"
         id="path4056" />
      <path
         id="path4058"
         style="fill:#747474;fill-opacity:1;fill-rule:evenodd;stroke:none"
         d="m 66.2041,521.3652 31.751,-1.161 1.159,31.751 -31.751,1.159 -1.159,-31.749 z"
         inkscape:connector-curvature="0" />
      <path
         id="path4060"
         style="fill:#747474;fill-opacity:1;fill-rule:evenodd;stroke:none"
         d="m 132.2861,585.1079 -31.752,1.178 -1.181,-31.751 31.754,-1.18 1.179,31.753 z"
         inkscape:connector-curvature="0" />
      <path
         id="path4062"
         style="fill:#8b8b8b;fill-opacity:1;fill-rule:evenodd;stroke:none"
         d="m 25.9326,528.4717 31.392,-4.901 4.906,31.393 -31.396,4.902 -4.902,-31.394 z"
         inkscape:connector-curvature="0" />
      <path
         id="path4064"
         style="fill:#8b8b8b;fill-opacity:1;fill-rule:evenodd;stroke:none"
         d="m 94.8574,589.3931 -31.478,4.318 -4.32,-31.477 31.48,-4.319 4.318,31.478 z"
         inkscape:connector-curvature="0" />
      <path
         id="path4066"
         style="fill:#949494;fill-opacity:1;fill-rule:evenodd;stroke:none"
         d="m 54.4067,601.2188 -32.718,5.405 -5.406,-32.718 32.719,-5.405 5.405,32.718 z"
         inkscape:connector-curvature="0" />
      <path
         inkscape:connector-curvature="0"
         d="m 167.017,583.819 -31.771,0 0,-31.771 31.771,0 0,31.771 z"
         style="fill:#565656;fill-opacity:1;fill-rule:evenodd;stroke:none"
         id="path4068" />
      <path
         id="path4070"
         style="fill:#4c4c4c;fill-opacity:1;fill-rule:evenodd;stroke:none"
         d="m 102.084,516.9268 0,-33.162 -33.159,0 0,-31.771 32.464,0 33.162,0 32.466,0 0,22.304 0,10.163 0,65.628 -31.771,0 0,-33.162 -33.162,0 z"
         inkscape:connector-curvature="0" />
      <path
         inkscape:connector-curvature="0"
         d="m 66.964,483.765 -31.768,0 0,-31.771 31.768,0 0,31.771 z"
         style="fill:#565656;fill-opacity:1;fill-rule:evenodd;stroke:none"
         id="path4072" />
    </g>
  </g>
  <g
     id="g4074"
     inkscape:groupmode="layer"
     inkscape:label="4">
    <rect
       style="fill:#030303;fill-rule:evenodd;stroke:#000000;stroke-width:1px;stroke-linecap:butt;stroke-linejoin:miter;stroke-opacity:1;fill-opacity:1"
       id="rect3373"
       width="233.85031"
       height="233.85031"
       x="-23.75889"
       y="-19.429966"
       inkscape:export-filename="/home/max/Projects/2/2/doc/logo/tu-logo-small_bw.png"
       inkscape:export-xdpi="90"
       inkscape:export-ydpi="90" />
    <g
       transform="matrix(1.25,0,0,-1.25,-20.455669,758.28389)"
       id="g4076"
       inkscape:export-filename="/home/max/Projects/2/2/doc/logo/tu-logo-small_bw.png"
       inkscape:export-xdpi="90"
       inkscape:export-ydpi="90">
      <g
         id="g4078"
         transform="translate(340.8115,547.8477)" />
      <path
         inkscape:connector-curvature="0"
         d="m 99.994,516.231 -30.374,0 0,-30.374 30.374,0 0,30.374 z"
         style="fill:#494d63;fill-opacity:1;fill-rule:evenodd;stroke:none"
         id="path4080" />
      <path
         id="path4082"
         style="fill:#685f88;fill-opacity:1;fill-rule:evenodd;stroke:none"
         d="m 66.084,518.6543 -31.742,1.435 -1.432,-31.747 31.741,-1.43 1.433,31.742 z"
         inkscape:connector-curvature="0" />
      <path
         inkscape:connector-curvature="0"
         d="m 102.78,519.014 30.376,0 0,30.376 -30.376,0 0,-30.376 z"
         style="fill:#494d63;fill-opacity:1;fill-rule:evenodd;stroke:none"
         id="path4084" />
      <path
         id="path4086"
         style="fill:#685f88;fill-opacity:1;fill-rule:evenodd;stroke:none"
         d="m 66.2041,521.3652 31.751,-1.161 1.159,31.751 -31.751,1.159 -1.159,-31.749 z"
         inkscape:connector-curvature="0" />
      <path
         id="path4088"
         style="fill:#685f88;fill-opacity:1;fill-rule:evenodd;stroke:none"
         d="m 132.2861,585.1079 -31.752,1.178 -1.181,-31.751 31.754,-1.18 1.179,31.753 z"
         inkscape:connector-curvature="0" />
      <path
         id="path4090"
         style="fill:#786ea9;fill-opacity:1;fill-rule:evenodd;stroke:none"
         d="m 25.9326,528.4717 31.392,-4.901 4.906,31.393 -31.396,4.902 -4.902,-31.394 z"
         inkscape:connector-curvature="0" />
      <path
         id="path4092"
         style="fill:#786ea9;fill-opacity:1;fill-rule:evenodd;stroke:none"
         d="m 94.8574,589.3931 -31.478,4.318 -4.32,-31.477 31.48,-4.319 4.318,31.478 z"
         inkscape:connector-curvature="0" />
      <path
         id="path4094"
         style="fill:#7a74b4;fill-opacity:1;fill-rule:evenodd;stroke:none"
         d="m 54.4067,601.2188 -32.718,5.405 -5.406,-32.718 32.719,-5.405 5.405,32.718 z"
         inkscape:connector-curvature="0" />
      <path
         inkscape:connector-curvature="0"
         d="m 167.017,583.819 -31.771,0 0,-31.771 31.771,0 0,31.771 z"
         style="fill:#494d63;fill-opacity:1;fill-rule:evenodd;stroke:none"
         id="path4096" />
      <path
         id="path4098"
         style="fill:#424556;fill-opacity:1;fill-rule:evenodd;stroke:none"
         d="m 102.084,516.9268 0,-33.162 -33.159,0 0,-31.771 32.464,0 33.162,0 32.466,0 0,22.304 0,10.163 0,65.628 -31.771,0 0,-33.162 -33.162,0 z"
         inkscape:connector-curvature="0" />
      <path
         inkscape:connector-curvature="0"
         d="m 66.964,483.765 -31.768,0 0,-31.771 31.768,0 0,31.771 z"
         style="fill:#494d63;fill-opacity:1;fill-rule:evenodd;stroke:none"
         id="path4100" />
    </g>
    <g
       style="display:inline"
       id="g4102"
       transform="matrix(1.25,0,0,-1.25,-20.455669,758.28389)">
      <g
         transform="translate(340.8115,547.8477)"
         id="g4104" />
      <path
         id="path4106"
         style="fill:#5a5a5a;fill-opacity:1;fill-rule:evenodd;stroke:none"
         d="m 99.994,516.231 -30.374,0 0,-30.374 30.374,0 0,30.374 z"
         inkscape:connector-curvature="0"
         inkscape:export-filename="/home/max/Projects/2/2/doc/logo/tu-logo-small_bw.png"
         inkscape:export-xdpi="90"
         inkscape:export-ydpi="90" />
      <path
         inkscape:connector-curvature="0"
         d="m 66.084,518.6543 -31.742,1.435 -1.432,-31.747 31.741,-1.43 1.433,31.742 z"
         style="fill:#828282;fill-opacity:1;fill-rule:evenodd;stroke:none"
         id="path4108"
         inkscape:export-filename="/home/max/Projects/2/2/doc/logo/tu-logo-small_bw.png"
         inkscape:export-xdpi="90"
         inkscape:export-ydpi="90" />
      <path
         id="path4110"
         style="fill:#5a5a5a;fill-opacity:1;fill-rule:evenodd;stroke:none"
         d="m 102.78,519.014 30.376,0 0,30.376 -30.376,0 0,-30.376 z"
         inkscape:connector-curvature="0"
         inkscape:export-filename="/home/max/Projects/2/2/doc/logo/tu-logo-small_bw.png"
         inkscape:export-xdpi="90"
         inkscape:export-ydpi="90" />
      <path
         inkscape:connector-curvature="0"
         d="m 66.2041,521.3652 31.751,-1.161 1.159,31.751 -31.751,1.159 -1.159,-31.749 z"
         style="fill:#828282;fill-opacity:1;fill-rule:evenodd;stroke:none"
         id="path4112"
         inkscape:export-filename="/home/max/Projects/2/2/doc/logo/tu-logo-small_bw.png"
         inkscape:export-xdpi="90"
         inkscape:export-ydpi="90" />
      <path
         inkscape:connector-curvature="0"
         d="m 132.2861,585.1079 -31.752,1.178 -1.181,-31.751 31.754,-1.18 1.179,31.753 z"
         style="fill:#828282;fill-opacity:1;fill-rule:evenodd;stroke:none"
         id="path4114"
         inkscape:export-filename="/home/max/Projects/2/2/doc/logo/tu-logo-small_bw.png"
         inkscape:export-xdpi="90"
         inkscape:export-ydpi="90" />
      <path
         inkscape:connector-curvature="0"
         d="m 25.9326,528.4717 31.392,-4.901 4.906,31.393 -31.396,4.902 -4.902,-31.394 z"
         style="fill:#aaaaaa;fill-opacity:1;fill-rule:evenodd;stroke:none"
         id="path4116"
         inkscape:export-filename="/home/max/Projects/2/2/doc/logo/tu-logo-small_bw.png"
         inkscape:export-xdpi="90"
         inkscape:export-ydpi="90" />
      <path
         inkscape:connector-curvature="0"
         d="m 94.8574,589.3931 -31.478,4.318 -4.32,-31.477 31.48,-4.319 4.318,31.478 z"
         style="fill:#aaaaaa;fill-opacity:1;fill-rule:evenodd;stroke:none"
         id="path4118"
         inkscape:export-filename="/home/max/Projects/2/2/doc/logo/tu-logo-small_bw.png"
         inkscape:export-xdpi="90"
         inkscape:export-ydpi="90" />
      <path
         inkscape:connector-curvature="0"
         d="m 54.4067,601.2188 -32.718,5.405 -5.406,-32.718 32.719,-5.405 5.405,32.718 z"
         style="fill:#e6e6e6;fill-opacity:1;fill-rule:evenodd;stroke:none"
         id="path4120"
         inkscape:export-filename="/home/max/Projects/2/2/doc/logo/tu-logo-small_bw.png"
         inkscape:export-xdpi="90"
         inkscape:export-ydpi="90" />
      <path
         id="path4122"
         style="fill:#5a5a5a;fill-opacity:1;fill-rule:evenodd;stroke:none"
         d="m 167.017,583.819 -31.771,0 0,-31.771 31.771,0 0,31.771 z"
         inkscape:connector-curvature="0"
         inkscape:export-filename="/home/max/Projects/2/2/doc/logo/tu-logo-small_bw.png"
         inkscape:export-xdpi="90"
         inkscape:export-ydpi="90" />
      <path
         inkscape:connector-curvature="0"
         d="m 102.084,516.9268 0,-33.162 -33.159,0 0,-31.771 32.464,0 33.162,0 32.466,0 0,22.304 0,10.163 0,65.628 -31.771,0 0,-33.162 -33.162,0 z"
         style="fill:#323232;fill-opacity:1;fill-rule:evenodd;stroke:none"
         id="path4124"
         inkscape:export-filename="/home/max/Projects/2/2/doc/logo/tu-logo-small_bw.png"
         inkscape:export-xdpi="90"
         inkscape:export-ydpi="90" />
      <path
         id="path4126"
         style="fill:#5a5a5a;fill-opacity:1;fill-rule:evenodd;stroke:none"
         d="m 66.964,483.765 -31.768,0 0,-31.771 31.768,0 0,31.771 z"
         inkscape:connector-curvature="0"
         inkscape:export-filename="/home/max/Projects/2/2/doc/logo/tu-logo-small_bw.png"
         inkscape:export-xdpi="90"
         inkscape:export-ydpi="90" />
    </g>
  </g>
</svg>
